<svg xmlns="http://www.w3.org/2000/svg" width="638" height="716" viewBox="0 0 638 716" fill="none"> <path fill-rule="evenodd" clip-rule="evenodd" d="M25.7109 304.946C65.5249 260.344 106.924 258.676 135.601 223.173C159.504 193.58 166.3 159.036 184.286 120.728C209.658 77.9989 249.24 18.1268 301.055 30.7773C356.429 44.2966 348.033 146.993 399.838 173.354C465.492 206.763 554.599 136.119 608.831 187.391C654.943 230.987 637.104 282.817 615.718 347.089C604.55 380.653 597.603 397.986 561.914 445.029C525.306 493.284 487.514 534.053 433.265 561.434C377.532 589.564 348.958 705.867 287.494 678.496C213.137 645.383 242.988 581.648 182.345 525.317C136.995 483.191 81.333 505.961 37.1611 462.562C-1.66124 424.42 -16.5339 343.17 25.7109 304.946Z" fill="#9087EF"/> </svg>