<svg xmlns="http://www.w3.org/2000/svg" width="417" height="222" viewBox="0 0 417 222" fill="none"> <rect width="417" height="222" rx="30" fill="#FCFCFC"/> <mask id="mask0_327_20" style="mask-type:alpha" maskUnits="userSpaceOnUse" x="0" y="0" width="417" height="222"> <rect width="417" height="222" rx="30" fill="#FCFCFC"/> </mask> <g mask="url(#mask0_327_20)"> <path fill-rule="evenodd" clip-rule="evenodd" d="M451.002 110.759C429.015 127.745 400.295 153.358 375.264 141.299C347.902 128.116 365.581 77.7926 342.239 58.3602C315.141 35.8016 252.951 64.3025 242.373 30.668C232.249 -1.5235 292.432 -12.7644 311.009 -40.9373C323.461 -59.8215 314.735 -88.8685 331.328 -104.241C348.125 -119.802 374.392 -125.549 396.681 -120.309C417.731 -115.361 422.681 -81.8972 443.908 -77.7757C481.087 -70.5568 528.056 -116.671 554.592 -89.6483C577.545 -66.2741 534.501 -29.24 520.781 0.508237C511.883 19.8025 499.751 35.9477 488.388 53.9012C476.006 73.4638 469.322 96.6044 451.002 110.759Z" fill="#D1FA94"/> </g> <rect x="5.5" y="5.5" width="406" height="211" rx="29.5" stroke="#585858"/> </svg>