<svg xmlns="http://www.w3.org/2000/svg" width="417" height="222" viewBox="0 0 417 222" fill="none"> <rect width="417" height="222" rx="30" fill="#FCFCFC"/> <mask id="mask0_327_29" style="mask-type:alpha" maskUnits="userSpaceOnUse" x="0" y="0" width="417" height="222"> <rect width="417" height="222" rx="30" fill="#FCFCFC"/> </mask> <g mask="url(#mask0_327_29)"> <path fill-rule="evenodd" clip-rule="evenodd" d="M494.423 -62.2806C514.878 -43.4781 544.972 -19.4948 537.313 7.21233C528.94 36.408 476.354 27.4799 461.142 53.7685C443.483 84.2862 482.075 140.77 450.71 156.876C420.69 172.291 399.448 114.869 368.543 101.316C347.828 92.2323 320.671 105.737 302.717 91.978C284.543 78.0503 274.444 53.1303 275.845 30.2763C277.168 8.69338 309.315 -1.83598 309.793 -23.4542C310.631 -61.3183 257.247 -99.8263 279.402 -130.544C298.564 -157.114 342.335 -120.942 373.973 -112.442C394.492 -106.929 412.454 -97.6979 432.069 -89.5295C453.441 -80.629 477.378 -77.9482 494.423 -62.2806Z" fill="#9087EF"/> </g> <rect x="5.5" y="5.5" width="406" height="211" rx="29.5" stroke="#585858"/> </svg>