<svg xmlns="http://www.w3.org/2000/svg" width="417" height="222" viewBox="0 0 417 222" fill="none"> <rect width="417" height="222" rx="30" fill="#FCFCFC"/> <mask id="mask0_327_50" style="mask-type:alpha" maskUnits="userSpaceOnUse" x="0" y="0" width="417" height="222"> <rect width="417" height="222" rx="30" fill="#FCFCFC"/> </mask> <g mask="url(#mask0_327_50)"> <path fill-rule="evenodd" clip-rule="evenodd" d="M410.974 -112.678C438.168 -118.369 475.186 -128.884 492.447 -107.113C511.316 -83.3127 473.451 -45.7452 485.976 -18.0754C500.516 14.0458 568.909 15.5347 563.753 50.4143C558.817 83.7974 499.759 67.6531 470.752 84.898C451.309 96.4571 446.486 126.4 424.849 132.993C402.946 139.666 376.803 133.376 359.034 118.936C342.252 105.3 352.399 73.0298 335.097 60.0597C304.793 37.3426 242.41 58.3432 230.324 22.4501C219.869 -8.59643 274.758 -23.139 300.083 -43.9203C316.508 -57.3987 334.468 -66.633 352.526 -77.8296C372.202 -90.0298 388.313 -107.935 410.974 -112.678Z" fill="#D1FA94"/> </g> <rect x="5.5" y="5.5" width="406" height="211" rx="29.5" stroke="#585858"/> </svg>