<svg xmlns="http://www.w3.org/2000/svg" width="417" height="222" viewBox="0 0 417 222" fill="none"> <rect width="417" height="222" rx="30" fill="#FCFCFC"/> <mask id="mask0_327_66" style="mask-type:alpha" maskUnits="userSpaceOnUse" x="0" y="0" width="417" height="222"> <rect width="417" height="222" rx="30" fill="#FCFCFC"/> </mask> <g mask="url(#mask0_327_66)"> <path fill-rule="evenodd" clip-rule="evenodd" d="M490.519 -3.71294C494.241 23.8202 502.069 61.4979 479.114 77.1496C454.019 94.2598 419.27 53.7936 390.771 64.2979C357.688 76.4921 351.289 144.601 316.87 136.952C283.928 129.63 304.274 71.885 289.158 41.7137C279.026 21.49 249.507 14.5285 244.486 -7.52712C239.404 -29.8528 247.556 -55.4759 263.235 -72.1619C278.043 -87.92 309.5 -75.4811 323.68 -91.8061C348.516 -120.399 332.052 -184.13 368.721 -193.606C400.439 -201.803 410.999 -146.01 429.907 -119.258C442.171 -101.907 450.09 -83.3293 459.961 -64.5136C470.715 -44.0116 487.417 -26.6557 490.519 -3.71294Z" fill="#9087EF"/> </g> <rect x="5.5" y="5.5" width="406" height="211" rx="29.5" stroke="#585858"/> </svg>