<svg xmlns="http://www.w3.org/2000/svg" width="50" height="50" viewBox="0 0 50 50" fill="none"> <circle cx="25" cy="25" r="25" fill="#9087EF"/> <path d="M34.8069 22.5432C33.6765 21.9277 32.1571 21.4849 30.4844 21.2767V20.5312C30.4844 19.3003 29.5114 18.1852 27.7422 17.3899C26.1334 16.6648 24.0047 16.2656 21.75 16.2656C19.4953 16.2656 17.3666 16.6648 15.7578 17.3899C13.9886 18.1852 13.0156 19.3003 13.0156 20.5312V24.5938C13.0156 25.8247 13.9886 26.9398 15.7578 27.7351C16.8232 28.2145 18.1151 28.5476 19.5156 28.7233V29.4688C19.5156 30.6997 20.4886 31.8148 22.2578 32.6101C23.8666 33.3352 25.9953 33.7344 28.25 33.7344C30.5047 33.7344 32.6334 33.3352 34.2422 32.6101C36.0084 31.8148 36.9844 30.6997 36.9844 29.4688V25.4062C36.9844 24.3246 36.2115 23.308 34.8069 22.5432ZM34.2239 23.6137C35.2182 24.155 35.7656 24.7969 35.7656 25.4062C35.7656 26.8474 32.6791 28.4531 28.25 28.4531C27.5298 28.4536 26.8103 28.4081 26.0959 28.317C26.6589 28.166 27.2093 27.9714 27.7422 27.7351C29.5084 26.9398 30.4844 25.8247 30.4844 24.5938V22.5046C31.9469 22.7006 33.257 23.0866 34.2239 23.6137ZM22.985 27.598C22.5869 27.6254 22.1725 27.6406 21.75 27.6406C21.2117 27.6406 20.6937 27.6163 20.1981 27.5726C20.1856 27.5715 20.1731 27.5715 20.1605 27.5726C19.797 27.5391 19.4496 27.4944 19.1094 27.4405V24.6059C19.9837 24.734 20.8663 24.7979 21.75 24.7969C22.6337 24.7979 23.5163 24.734 24.3906 24.6059V27.4375C23.9498 27.5076 23.4857 27.5614 23.0002 27.5959L22.985 27.598ZM29.2656 22.7545V24.5938C29.2656 25.5627 27.8691 26.6047 25.6094 27.1846V24.3754C26.3412 24.2102 27.0555 23.9748 27.7422 23.6726C28.2884 23.4354 28.8007 23.1266 29.2656 22.7545ZM21.75 17.4844C26.1791 17.4844 29.2656 19.0901 29.2656 20.5312C29.2656 21.9724 26.1791 23.5781 21.75 23.5781C17.3209 23.5781 14.2344 21.9724 14.2344 20.5312C14.2344 19.0901 17.3209 17.4844 21.75 17.4844ZM14.2344 24.5938V22.7545C14.6995 23.1252 15.2118 23.4326 15.7578 23.6685C16.4445 23.9707 17.1588 24.2061 17.8906 24.3713V27.1805C15.6309 26.6047 14.2344 25.5627 14.2344 24.5938ZM20.7344 29.4688V28.8309C21.0695 28.8492 21.4077 28.8594 21.75 28.8594C22.1502 28.8594 22.5449 28.8468 22.9342 28.8218C23.4106 28.9937 23.8969 29.1365 24.3906 29.2494V32.0596C22.1309 31.4797 20.7344 30.4377 20.7344 29.4688ZM25.6094 32.3125V29.4789C26.4837 29.6077 27.3663 29.6722 28.25 29.6719C29.1337 29.6729 30.0163 29.609 30.8906 29.4809V32.3125C29.1406 32.5833 27.3594 32.5833 25.6094 32.3125ZM32.1094 32.0596V29.2504C32.8412 29.0852 33.5555 28.8498 34.2422 28.5476C34.7882 28.3116 35.3005 28.0042 35.7656 27.6335V29.4688C35.7656 30.4377 34.3691 31.4797 32.1094 32.0596Z" fill="white"/> </svg>