<svg xmlns="http://www.w3.org/2000/svg" width="50" height="50" viewBox="0 0 50 50" fill="none"> <circle cx="25" cy="25" r="25" fill="#9087EF"/> <path d="M33.125 15.4531H30.4844V14.4375C30.4844 14.2759 30.4202 14.1209 30.3059 14.0066C30.1916 13.8923 30.0366 13.8281 29.875 13.8281C29.7134 13.8281 29.5584 13.8923 29.4441 14.0066C29.3298 14.1209 29.2656 14.2759 29.2656 14.4375V15.4531H20.7344V14.4375C20.7344 14.2759 20.6702 14.1209 20.5559 14.0066C20.4416 13.8923 20.2866 13.8281 20.125 13.8281C19.9634 13.8281 19.8084 13.8923 19.6941 14.0066C19.5798 14.1209 19.5156 14.2759 19.5156 14.4375V15.4531H16.875C16.4979 15.4531 16.1362 15.6029 15.8696 15.8696C15.6029 16.1362 15.4531 16.4979 15.4531 16.875V33.125C15.4531 33.5021 15.6029 33.8638 15.8696 34.1304C16.1362 34.3971 16.4979 34.5469 16.875 34.5469H33.125C33.5021 34.5469 33.8638 34.3971 34.1304 34.1304C34.3971 33.8638 34.5469 33.5021 34.5469 33.125V16.875C34.5469 16.4979 34.3971 16.1362 34.1304 15.8696C33.8638 15.6029 33.5021 15.4531 33.125 15.4531ZM16.875 16.6719H19.5156V17.6875C19.5156 17.8491 19.5798 18.0041 19.6941 18.1184C19.8084 18.2327 19.9634 18.2969 20.125 18.2969C20.2866 18.2969 20.4416 18.2327 20.5559 18.1184C20.6702 18.0041 20.7344 17.8491 20.7344 17.6875V16.6719H29.2656V17.6875C29.2656 17.8491 29.3298 18.0041 29.4441 18.1184C29.5584 18.2327 29.7134 18.2969 29.875 18.2969C30.0366 18.2969 30.1916 18.2327 30.3059 18.1184C30.4202 18.0041 30.4844 17.8491 30.4844 17.6875V16.6719H33.125C33.1789 16.6719 33.2305 16.6933 33.2686 16.7314C33.3067 16.7695 33.3281 16.8211 33.3281 16.875V20.3281H16.6719V16.875C16.6719 16.8211 16.6933 16.7695 16.7314 16.7314C16.7695 16.6933 16.8211 16.6719 16.875 16.6719ZM33.125 33.3281H16.875C16.8211 33.3281 16.7695 33.3067 16.7314 33.2686C16.6933 33.2305 16.6719 33.1789 16.6719 33.125V21.5469H33.3281V33.125C33.3281 33.1789 33.3067 33.2305 33.2686 33.2686C33.2305 33.3067 33.1789 33.3281 33.125 33.3281ZM29.0869 24.5694C29.201 24.6836 29.2651 24.8385 29.2651 25C29.2651 25.1615 29.201 25.3164 29.0869 25.4306L24.2119 30.3056C24.0976 30.4197 23.9427 30.4838 23.7812 30.4838C23.6198 30.4838 23.4649 30.4197 23.3506 30.3056L20.9131 27.8681C20.8055 27.7526 20.7469 27.5998 20.7497 27.442C20.7525 27.2841 20.8164 27.1335 20.9281 27.0218C21.0397 26.9102 21.1903 26.8462 21.3482 26.8434C21.5061 26.8406 21.6589 26.8992 21.7744 27.0069L23.7812 29.0127L28.2256 24.5694C28.3399 24.4553 28.4948 24.3912 28.6562 24.3912C28.8177 24.3912 28.9726 24.4553 29.0869 24.5694Z" fill="white"/> </svg>