<svg xmlns="http://www.w3.org/2000/svg" width="50" height="50" viewBox="0 0 50 50" fill="none"> <circle cx="25" cy="25" r="25" fill="#9087EF"/> <path d="M25 28.8594C25.7633 28.8594 26.5095 28.633 27.1442 28.209C27.7788 27.7849 28.2735 27.1821 28.5656 26.4769C28.8577 25.7717 28.9341 24.9957 28.7852 24.2471C28.6363 23.4984 28.2687 22.8108 27.729 22.271C27.1892 21.7313 26.5016 21.3637 25.7529 21.2148C25.0043 21.0659 24.2283 21.1423 23.5231 21.4344C22.8179 21.7265 22.2151 22.2212 21.791 22.8558C21.367 23.4905 21.1406 24.2367 21.1406 25C21.1406 26.0236 21.5472 27.0052 22.271 27.729C22.9948 28.4528 23.9764 28.8594 25 28.8594ZM25 22.3594C25.5223 22.3594 26.0328 22.5142 26.4671 22.8044C26.9013 23.0946 27.2398 23.507 27.4396 23.9895C27.6395 24.472 27.6918 25.0029 27.5899 25.5152C27.488 26.0274 27.2365 26.4979 26.8672 26.8672C26.4979 27.2365 26.0274 27.488 25.5152 27.5899C25.0029 27.6918 24.472 27.6395 23.9895 27.4396C23.507 27.2398 23.0946 26.9013 22.8044 26.4671C22.5142 26.0328 22.3594 25.5223 22.3594 25C22.3594 24.2997 22.6376 23.628 23.1328 23.1328C23.628 22.6376 24.2997 22.3594 25 22.3594ZM36.375 17.8906H13.625C13.4634 17.8906 13.3084 17.9548 13.1941 18.0691C13.0798 18.1834 13.0156 18.3384 13.0156 18.5V31.5C13.0156 31.6616 13.0798 31.8166 13.1941 31.9309C13.3084 32.0452 13.4634 32.1094 13.625 32.1094H36.375C36.5366 32.1094 36.6916 32.0452 36.8059 31.9309C36.9202 31.8166 36.9844 31.6616 36.9844 31.5V18.5C36.9844 18.3384 36.9202 18.1834 36.8059 18.0691C36.6916 17.9548 36.5366 17.8906 36.375 17.8906ZM14.2344 23.052C15.1806 22.8003 16.0435 22.3031 16.7358 21.6108C17.4281 20.9185 17.9253 20.0556 18.177 19.1094H31.823C32.0747 20.0556 32.5719 20.9185 33.2642 21.6108C33.9565 22.3031 34.8194 22.8003 35.7656 23.052V26.948C34.8194 27.1997 33.9565 27.6969 33.2642 28.3892C32.5719 29.0815 32.0747 29.9444 31.823 30.8906H18.177C17.9253 29.9444 17.4281 29.0815 16.7358 28.3892C16.0435 27.6969 15.1806 27.1997 14.2344 26.948V23.052ZM35.7656 21.7795C35.1484 21.5638 34.5878 21.2118 34.1255 20.7495C33.6632 20.2872 33.3112 19.7266 33.0955 19.1094H35.7656V21.7795ZM16.9045 19.1094C16.6888 19.7266 16.3368 20.2872 15.8745 20.7495C15.4122 21.2118 14.8516 21.5638 14.2344 21.7795V19.1094H16.9045ZM14.2344 28.2205C14.8516 28.4362 15.4122 28.7882 15.8745 29.2505C16.3368 29.7128 16.6888 30.2734 16.9045 30.8906H14.2344V28.2205ZM33.0955 30.8906C33.3112 30.2734 33.6632 29.7128 34.1255 29.2505C34.5878 28.7882 35.1484 28.4362 35.7656 28.2205V30.8906H33.0955Z" fill="white"/> </svg>