<svg xmlns="http://www.w3.org/2000/svg" width="50" height="50" viewBox="0 0 50 50" fill="none"> <circle cx="25" cy="25" r="25" fill="#9087EF"/> <path d="M25 18.7031C24.2367 18.7031 23.4905 18.9295 22.8558 19.3535C22.2212 19.7776 21.7265 20.3804 21.4344 21.0856C21.1423 21.7908 21.0659 22.5668 21.2148 23.3154C21.3637 24.0641 21.7313 24.7517 22.271 25.2915C22.8108 25.8312 23.4984 26.1988 24.2471 26.3477C24.9957 26.4966 25.7717 26.4202 26.4769 26.1281C27.1821 25.836 27.7849 25.3413 28.209 24.7067C28.633 24.072 28.8594 23.3258 28.8594 22.5625C28.8594 21.5389 28.4528 20.5573 27.729 19.8335C27.0052 19.1097 26.0236 18.7031 25 18.7031ZM25 25.2031C24.4777 25.2031 23.9672 25.0483 23.5329 24.7581C23.0987 24.4679 22.7602 24.0555 22.5604 23.573C22.3605 23.0905 22.3082 22.5596 22.4101 22.0473C22.512 21.5351 22.7635 21.0646 23.1328 20.6953C23.5021 20.326 23.9726 20.0745 24.4848 19.9726C24.9971 19.8707 25.528 19.923 26.0105 20.1229C26.493 20.3227 26.9054 20.6612 27.1956 21.0954C27.4858 21.5297 27.6406 22.0402 27.6406 22.5625C27.6406 23.2628 27.3624 23.9345 26.8672 24.4297C26.372 24.9249 25.7003 25.2031 25 25.2031ZM25 13.8281C22.6843 13.8308 20.4643 14.7519 18.8268 16.3893C17.1894 18.0268 16.2683 20.2468 16.2656 22.5625C16.2656 25.7018 17.722 29.0361 20.4774 32.2048C21.7211 33.6421 23.1207 34.9365 24.6506 36.0642C24.753 36.1359 24.875 36.1743 25 36.1743C25.125 36.1743 25.247 36.1359 25.3494 36.0642C26.8793 34.9365 28.2789 33.6421 29.5226 32.2048C32.278 29.0361 33.7344 25.7048 33.7344 22.5625C33.7317 20.2468 32.8106 18.0268 31.1732 16.3893C29.5357 14.7519 27.3157 13.8308 25 13.8281ZM25 34.8018C23.4766 33.6257 17.4844 28.6177 17.4844 22.5625C17.4844 20.5692 18.2762 18.6576 19.6857 17.2482C21.0951 15.8387 23.0067 15.0469 25 15.0469C26.9933 15.0469 28.9049 15.8387 30.3143 17.2482C31.7238 18.6576 32.5156 20.5692 32.5156 22.5625C32.5156 28.6177 26.5234 33.6257 25 34.8018Z" fill="white"/> </svg>