<svg xmlns="http://www.w3.org/2000/svg" width="50" height="50" viewBox="0 0 50 50" fill="none"> <g clip-path="url(#clip0_313_42)"> <circle cx="25" cy="25" r="25" fill="#9087EF"/> <path d="M33.1249 23.5781C32.5041 23.5777 31.8894 23.7013 31.3171 23.9417L28.4987 19.1094H31.4999C31.7692 19.1094 32.0276 19.2164 32.218 19.4068C32.4085 19.5973 32.5155 19.8556 32.5155 20.125C32.5155 20.2866 32.5797 20.4416 32.694 20.5559C32.8083 20.6702 32.9632 20.7344 33.1249 20.7344C33.2865 20.7344 33.4415 20.6702 33.5558 20.5559C33.67 20.4416 33.7342 20.2866 33.7342 20.125C33.7342 19.5324 33.4988 18.9641 33.0798 18.5451C32.6608 18.126 32.0925 17.8906 31.4999 17.8906H27.4374C27.3305 17.8909 27.2257 17.9193 27.1333 17.9729C27.0408 18.0265 26.9641 18.1034 26.9109 18.196C26.8576 18.2886 26.8296 18.3936 26.8296 18.5004C26.8297 18.6072 26.8579 18.7122 26.9113 18.8047L28.2722 21.1406H21.9642L20.2447 18.1953C20.1914 18.1029 20.1147 18.0261 20.0224 17.9727C19.93 17.9192 19.8253 17.8909 19.7186 17.8906H16.8749C16.7132 17.8906 16.5583 17.9548 16.444 18.0691C16.3297 18.1834 16.2655 18.3384 16.2655 18.5C16.2655 18.6616 16.3297 18.8166 16.444 18.9309C16.5583 19.0452 16.7132 19.1094 16.8749 19.1094H19.3682L20.8917 21.7134L19.1092 24.1489C18.0642 23.5753 16.84 23.4207 15.6852 23.7167C14.5304 24.0126 13.5314 24.7368 12.891 25.7424C12.2507 26.7479 12.0168 27.9594 12.237 29.131C12.4572 30.3026 13.1149 31.3466 14.0767 32.051C15.0385 32.7554 16.2322 33.0676 17.4157 32.924C18.5991 32.7805 19.6836 32.1921 20.4491 31.2782C21.2146 30.3643 21.6037 29.1934 21.5374 28.0031C21.4712 26.8128 20.9545 25.6923 20.0924 24.869L21.5579 22.8672L24.88 28.5547C24.9335 28.6472 25.0103 28.7241 25.1028 28.7776C25.1953 28.8311 25.3003 28.8593 25.4071 28.8594C25.5143 28.8593 25.6195 28.8306 25.7118 28.7761C25.8513 28.6947 25.9527 28.5612 25.9938 28.4051C26.035 28.2489 26.0124 28.0828 25.9312 27.9433L22.6741 22.3573H28.9821L30.2649 24.5572C29.3904 25.2348 28.7849 26.2007 28.5559 27.283C28.3269 28.3653 28.4894 29.4937 29.0145 30.4674C29.5396 31.4411 30.3931 32.1969 31.4232 32.6003C32.4533 33.0036 33.5931 33.0283 34.6397 32.6701C35.6863 32.3118 36.5719 31.5937 37.1387 30.6437C37.7055 29.6937 37.9168 28.5734 37.735 27.4822C37.5531 26.391 36.99 25.3997 36.1458 24.6848C35.3016 23.9699 34.2311 23.5777 33.1249 23.5781ZM20.328 28.25C20.3281 28.9997 20.0843 29.7291 19.6333 30.3279C19.1823 30.9268 18.5486 31.3626 17.828 31.5696C17.1075 31.7765 16.3391 31.7433 15.6391 31.475C14.939 31.2067 14.3453 30.7179 13.9476 30.0824C13.55 29.4469 13.3699 28.6992 13.4346 27.9523C13.4994 27.2054 13.8055 26.4999 14.3066 25.9423C14.8078 25.3847 15.4768 25.0054 16.2125 24.8616C16.9483 24.7178 17.7109 24.8174 18.3851 25.1452L16.3823 27.8874C16.2869 28.0181 16.2474 28.1812 16.2723 28.341C16.2973 28.5008 16.3847 28.6442 16.5153 28.7395C16.646 28.8349 16.8091 28.8744 16.9689 28.8495C17.1287 28.8245 17.2721 28.7371 17.3674 28.6065L19.3682 25.8643C19.9844 26.5056 20.3284 27.3606 20.328 28.25ZM33.1249 31.7031C32.4193 31.7016 31.7312 31.484 31.1531 31.0796C30.575 30.6752 30.1346 30.1034 29.8912 29.4412C29.6478 28.779 29.6131 28.0581 29.7918 27.3756C29.9704 26.6931 30.3539 26.0816 30.8905 25.6236L32.5988 28.5547C32.6522 28.6472 32.729 28.7241 32.8215 28.7776C32.9141 28.8311 33.019 28.8593 33.1259 28.8594C33.2331 28.8593 33.3383 28.8306 33.4306 28.7761C33.57 28.6947 33.6714 28.5612 33.7126 28.4051C33.7537 28.2489 33.7312 28.0828 33.6499 27.9433L31.9376 25.0071C32.4113 24.8338 32.9173 24.7664 33.4199 24.8096C33.9225 24.8528 34.4095 25.0056 34.8467 25.2572C35.2839 25.5089 35.6607 25.8533 35.9505 26.2662C36.2403 26.6791 36.4361 27.1504 36.5242 27.6471C36.6122 28.1438 36.5904 28.6538 36.4602 29.1412C36.33 29.6285 36.0947 30.0814 35.7706 30.4681C35.4466 30.8547 35.0418 31.1656 34.5847 31.379C34.1276 31.5924 33.6293 31.703 33.1249 31.7031Z" fill="white"/> </g> <defs> <clipPath id="clip0_313_42"> <rect width="50" height="50" fill="white"/> </clipPath> </defs> </svg>