<svg xmlns="http://www.w3.org/2000/svg" width="50" height="50" viewBox="0 0 50 50" fill="none"> <g clip-path="url(#clip0_313_43)"> <circle cx="25" cy="25" r="25" fill="#9087EF"/> <path d="M35.4711 17.2518C34.9623 16.5977 34.2057 16.2656 33.2266 16.2656C31.5681 16.2656 29.4271 17.3889 27.4985 19.2709C26.7871 19.9556 26.1536 20.7169 25.6094 21.5408V17.6875C25.6094 17.5259 25.5452 17.3709 25.4309 17.2566C25.3166 17.1423 25.1616 17.0781 25 17.0781C24.8384 17.0781 24.6834 17.1423 24.5691 17.2566C24.4549 17.3709 24.3907 17.5259 24.3907 17.6875V21.5408C23.8484 20.7172 23.2169 19.9559 22.5077 19.2709C20.581 17.3889 18.4391 16.2656 16.7806 16.2656C15.7964 16.2656 15.0398 16.5977 14.531 17.2518C13.9693 17.9739 13.7479 19.0484 13.8546 20.5363C13.947 21.8292 14.273 23.2308 14.5462 24.3073C15.184 26.82 16.6557 27.6589 17.7739 27.9311C17.4754 28.4056 17.2733 28.9342 17.1791 29.4868C17.0849 30.0394 17.1004 30.6051 17.2249 31.1517C17.3493 31.6982 17.5802 32.2149 17.9043 32.6723C18.2285 33.1296 18.6395 33.5187 19.114 33.8171C19.5885 34.1156 20.1171 34.3177 20.6697 34.4119C21.2222 34.5061 21.788 34.4906 22.3345 34.3661C22.8811 34.2417 23.3978 34.0108 23.8552 33.6867C24.3125 33.3625 24.7015 32.9515 25 32.477C25.6029 33.4354 26.5617 34.1151 27.6657 34.3665C28.7696 34.6179 29.9282 34.4205 30.8866 33.8177C31.845 33.2148 32.5246 32.256 32.7761 31.152C33.0275 30.0481 32.83 28.8895 32.2272 27.9311C33.3444 27.664 34.8171 26.82 35.4549 24.3073C36.1262 21.6698 36.6513 18.7691 35.4711 17.2518ZM21.3438 33.3281C20.5695 33.3171 19.8283 33.0128 19.2696 32.4767C18.7108 31.9406 18.3762 31.2125 18.3332 30.4394C18.2901 29.6663 18.5419 28.9056 19.0377 28.3108C19.5334 27.716 20.2363 27.3313 21.0046 27.2344C21.0846 27.2256 21.1621 27.2012 21.2327 27.1625C21.3033 27.1238 21.3656 27.0716 21.416 27.0089C21.4664 26.9461 21.5039 26.874 21.5265 26.7967C21.549 26.7195 21.5561 26.6385 21.5474 26.5585C21.5387 26.4785 21.5143 26.4009 21.4756 26.3303C21.4369 26.2598 21.3847 26.1975 21.3219 26.1471C21.2591 26.0967 21.1871 26.0591 21.1098 26.0366C21.0325 26.014 20.9515 26.0069 20.8715 26.0156C20.1251 26.0991 19.4142 26.3795 18.8118 26.8281C17.8978 26.8596 16.3621 26.5072 15.7274 24.0087C15.3973 22.7077 14.5198 19.2526 15.4928 18.0013C15.7629 17.653 16.1844 17.4844 16.7806 17.4844C18.0887 17.4844 20.0021 18.5284 21.6556 20.1433C23.3435 21.7896 24.3907 23.638 24.3907 24.9665V30.2812C24.3907 31.0893 24.0696 31.8643 23.4982 32.4357C22.9268 33.0071 22.1519 33.3281 21.3438 33.3281ZM34.2737 24.0077C33.64 26.5062 32.1094 26.8576 31.1953 26.8281C30.5932 26.3791 29.8822 26.0986 29.1357 26.0156C29.0556 26.0066 28.9746 26.0133 28.8972 26.0356C28.8198 26.0578 28.7475 26.0951 28.6845 26.1453C28.6215 26.1954 28.569 26.2575 28.53 26.328C28.491 26.3985 28.4663 26.4759 28.4572 26.5559C28.4481 26.636 28.4549 26.717 28.4772 26.7944C28.4994 26.8718 28.5367 26.9441 28.5869 27.0071C28.637 27.0701 28.6991 27.1226 28.7696 27.1616C28.8401 27.2006 28.9175 27.2253 28.9975 27.2344C29.5845 27.2981 30.1406 27.5304 30.5984 27.9033C31.0563 28.2761 31.3964 28.7735 31.5777 29.3355C31.7591 29.8974 31.7738 30.4998 31.6202 31.0699C31.4667 31.6401 31.1513 32.1536 30.7123 32.5484C30.2732 32.9432 29.7293 33.2025 29.1461 33.2949C28.5629 33.3873 27.9654 33.3089 27.4258 33.0692C26.8862 32.8295 26.4276 32.4386 26.1052 31.9439C25.7829 31.4492 25.6107 30.8717 25.6094 30.2812V24.9665C25.6094 23.638 26.6575 21.7896 28.3445 20.1433C30 18.5284 31.9134 17.4844 33.2266 17.4844C33.8228 17.4844 34.2422 17.653 34.5144 18.0003C35.4823 19.2516 34.6048 22.7067 34.2747 24.0077H34.2737Z" fill="white"/> </g> <defs> <clipPath id="clip0_313_43"> <rect width="50" height="50" fill="white"/> </clipPath> </defs> </svg>