<svg xmlns="http://www.w3.org/2000/svg" width="50" height="50" viewBox="0 0 50 50" fill="none"> <g clip-path="url(#clip0_313_49)"> <circle cx="25" cy="25" r="25" fill="#9087EF"/> <path d="M34.7927 22.5828C34.3966 22.1695 33.9873 21.7429 33.8227 21.3458C33.6704 20.9771 33.6623 20.4317 33.6531 19.8548C33.6389 18.9022 33.6227 17.8236 32.8995 17.1005C32.1764 16.3773 31.0938 16.3611 30.1452 16.3469C29.5683 16.3377 29.028 16.3296 28.6542 16.1773C28.2571 16.0127 27.8305 15.6034 27.4172 15.2073C26.7428 14.5614 25.9791 13.8281 25 13.8281C24.0209 13.8281 23.2572 14.5614 22.5828 15.2073C22.1695 15.6034 21.7429 16.0127 21.3458 16.1773C20.9771 16.3296 20.4317 16.3377 19.8548 16.3469C18.9022 16.3611 17.8236 16.3773 17.1005 17.1005C16.3773 17.8236 16.3611 18.9062 16.3469 19.8548C16.3377 20.4317 16.3296 20.972 16.1773 21.3458C16.0127 21.7429 15.6034 22.1695 15.2073 22.5828C14.5614 23.2572 13.8281 24.0209 13.8281 25C13.8281 25.9791 14.5614 26.7428 15.2073 27.4172C15.6034 27.8305 16.0127 28.2571 16.1773 28.6542C16.3296 29.0229 16.3377 29.5683 16.3469 30.1452C16.3611 31.0978 16.3773 32.1764 17.1005 32.8995C17.8236 33.6227 18.9062 33.6389 19.8548 33.6531C20.4317 33.6623 20.972 33.6704 21.3458 33.8227C21.7429 33.9873 22.1695 34.3966 22.5828 34.7927C23.2572 35.4386 24.0209 36.1719 25 36.1719C25.9791 36.1719 26.7428 35.4386 27.4172 34.7927C27.8305 34.3966 28.2571 33.9873 28.6542 33.8227C29.0229 33.6704 29.5683 33.6623 30.1452 33.6531C31.0978 33.6389 32.1764 33.6227 32.8995 32.8995C33.6227 32.1764 33.6389 31.0978 33.6531 30.1452C33.6623 29.5683 33.6704 29.028 33.8227 28.6542C33.9873 28.2571 34.3966 27.8305 34.7927 27.4172C35.4386 26.7428 36.1719 25.9791 36.1719 25C36.1719 24.0209 35.4386 23.2572 34.7927 22.5828ZM33.9131 26.5742C33.4388 27.0678 32.9483 27.5797 32.6944 28.1891C32.4527 28.772 32.4425 29.4606 32.4323 30.1269C32.4212 30.8825 32.409 31.6645 32.0362 32.0383C31.6635 32.412 30.8805 32.4232 30.1248 32.4344C29.4586 32.4445 28.77 32.4547 28.187 32.6964C27.5777 32.9483 27.0698 33.4388 26.5712 33.9152C26.038 34.423 25.4865 34.9552 24.998 34.9552C24.5095 34.9552 23.958 34.426 23.4238 33.9152C22.9302 33.4409 22.4183 32.9503 21.8089 32.6964C21.2259 32.4547 20.5373 32.4445 19.8711 32.4344C19.1155 32.4232 18.3334 32.411 17.9597 32.0383C17.5859 31.6655 17.5748 30.8825 17.5636 30.1269C17.5534 29.4606 17.5433 28.772 17.3016 28.1891C17.0497 27.5797 16.5591 27.0719 16.0828 26.5732C15.576 26.04 15.0469 25.4885 15.0469 25C15.0469 24.5115 15.576 23.96 16.0869 23.4258C16.5612 22.9322 17.0517 22.4203 17.3056 21.8109C17.5473 21.228 17.5575 20.5394 17.5677 19.8731C17.5788 19.1175 17.591 18.3355 17.9638 17.9617C18.3365 17.588 19.1195 17.5768 19.8752 17.5656C20.5414 17.5555 21.23 17.5453 21.813 17.3036C22.4223 17.0517 22.9302 16.5612 23.4288 16.0848C23.96 15.576 24.5115 15.0469 25 15.0469C25.4885 15.0469 26.04 15.576 26.5742 16.0869C27.0678 16.5612 27.5797 17.0517 28.1891 17.3056C28.772 17.5473 29.4606 17.5575 30.1269 17.5677C30.8825 17.5788 31.6645 17.591 32.0383 17.9638C32.412 18.3365 32.4232 19.1195 32.4344 19.8752C32.4445 20.5414 32.4547 21.23 32.6964 21.813C32.9483 22.4223 33.4388 22.9302 33.9152 23.4288C34.423 23.962 34.9552 24.5135 34.9552 25.002C34.9552 25.4905 34.424 26.04 33.9131 26.5742ZM29.4931 22.1319C29.6072 22.2461 29.6713 22.401 29.6713 22.5625C29.6713 22.724 29.6072 22.8789 29.4931 22.9931L23.8056 28.6806C23.6914 28.7947 23.5365 28.8588 23.375 28.8588C23.2135 28.8588 23.0586 28.7947 22.9444 28.6806L20.5069 26.2431C20.3992 26.1276 20.3406 25.9748 20.3434 25.817C20.3462 25.6591 20.4102 25.5085 20.5218 25.3968C20.6335 25.2852 20.7841 25.2212 20.942 25.2184C21.0998 25.2156 21.2526 25.2742 21.3681 25.3819L23.375 27.3877L28.6319 22.1319C28.7461 22.0178 28.901 21.9537 29.0625 21.9537C29.224 21.9537 29.3789 22.0178 29.4931 22.1319Z" fill="white"/> </g> <defs> <clipPath id="clip0_313_49"> <rect width="50" height="50" fill="white"/> </clipPath> </defs> </svg>