<svg xmlns="http://www.w3.org/2000/svg" width="50" height="50" viewBox="0 0 50 50" fill="none"> <g clip-path="url(#clip0_313_61)"> <circle cx="25" cy="25" r="25" fill="#9087EF"/> <path d="M29.875 13.8281H20.125C19.5324 13.8281 18.9641 14.0635 18.5451 14.4826C18.126 14.9016 17.8906 15.4699 17.8906 16.0625V33.9375C17.8906 34.5301 18.126 35.0984 18.5451 35.5174C18.9641 35.9365 19.5324 36.1719 20.125 36.1719H29.875C30.4676 36.1719 31.0359 35.9365 31.4549 35.5174C31.874 35.0984 32.1094 34.5301 32.1094 33.9375V16.0625C32.1094 15.4699 31.874 14.9016 31.4549 14.4826C31.0359 14.0635 30.4676 13.8281 29.875 13.8281ZM19.1094 18.2969H30.8906V31.7031H19.1094V18.2969ZM20.125 15.0469H29.875C30.1444 15.0469 30.4027 15.1539 30.5932 15.3443C30.7836 15.5348 30.8906 15.7931 30.8906 16.0625V17.0781H19.1094V16.0625C19.1094 15.7931 19.2164 15.5348 19.4068 15.3443C19.5973 15.1539 19.8556 15.0469 20.125 15.0469ZM29.875 34.9531H20.125C19.8556 34.9531 19.5973 34.8461 19.4068 34.6557C19.2164 34.4652 19.1094 34.2069 19.1094 33.9375V32.9219H30.8906V33.9375C30.8906 34.2069 30.7836 34.4652 30.5932 34.6557C30.4027 34.8461 30.1444 34.9531 29.875 34.9531Z" fill="white"/> </g> <defs> <clipPath id="clip0_313_61"> <rect width="50" height="50" fill="white"/> </clipPath> </defs> </svg>