<svg xmlns="http://www.w3.org/2000/svg" width="50" height="50" viewBox="0 0 50 50" fill="none"> <g clip-path="url(#clip0_313_55)"> <circle cx="25" cy="25" r="25" fill="#9087EF"/> <path d="M23.4361 26.0905C24.5677 25.4491 25.4552 24.4512 25.9601 23.2525C26.465 22.0537 26.559 20.7216 26.2273 19.4638C25.8956 18.2061 25.157 17.0935 24.1266 16.2996C23.0963 15.5057 21.8321 15.0752 20.5314 15.0752C19.2307 15.0752 17.9665 15.5057 16.9361 16.2996C15.9058 17.0935 15.1671 18.2061 14.8355 19.4638C14.5038 20.7216 14.5978 22.0537 15.1027 23.2525C15.6076 24.4512 16.4951 25.4491 17.6267 26.0905C15.5294 26.7591 13.7283 28.1332 12.5293 29.9793C12.4409 30.1147 12.41 30.2796 12.4432 30.4378C12.4764 30.5959 12.5712 30.7344 12.7065 30.8228C12.8419 30.9111 13.0068 30.9421 13.1649 30.9089C13.3231 30.8756 13.4616 30.7809 13.55 30.6456C14.3062 29.4828 15.3409 28.5274 16.5601 27.866C17.7793 27.2045 19.1443 26.8581 20.5314 26.8581C21.9184 26.8581 23.2835 27.2045 24.5027 27.866C25.7219 28.5274 26.7566 29.4828 27.5128 30.6456C27.6069 30.7662 27.7429 30.847 27.8938 30.8719C28.0448 30.8969 28.1996 30.8641 28.3275 30.7802C28.4554 30.6963 28.5471 30.5674 28.5843 30.419C28.6215 30.2706 28.6016 30.1137 28.5284 29.9793C27.3307 28.1341 25.5315 26.7602 23.4361 26.0905ZM15.8595 20.9687C15.8595 20.0447 16.1335 19.1414 16.6469 18.3731C17.1602 17.6049 17.8899 17.006 18.7435 16.6524C19.5972 16.2988 20.5366 16.2063 21.4428 16.3866C22.3491 16.5669 23.1815 17.0118 23.8349 17.6652C24.4883 18.3186 24.9332 19.151 25.1135 20.0573C25.2938 20.9635 25.2012 21.9029 24.8476 22.7565C24.494 23.6102 23.8952 24.3399 23.1269 24.8532C22.3587 25.3666 21.4554 25.6406 20.5314 25.6406C19.2928 25.639 18.1055 25.1462 17.2297 24.2704C16.3539 23.3946 15.8611 22.2073 15.8595 20.9687ZM37.2892 30.8203C37.154 30.9085 36.9892 30.9395 36.8311 30.9063C36.6731 30.8732 36.5346 30.7787 36.4462 30.6435C35.6913 29.4807 34.6574 28.5252 33.4387 27.8643C32.22 27.2033 30.8553 26.8578 29.4689 26.8593C29.3073 26.8593 29.1523 26.7951 29.038 26.6808C28.9237 26.5666 28.8595 26.4116 28.8595 26.2499C28.8595 26.0883 28.9237 25.9333 29.038 25.8191C29.1523 25.7048 29.3073 25.6406 29.4689 25.6406C30.1569 25.6399 30.8362 25.4873 31.4583 25.1936C32.0805 24.8999 32.6301 24.4725 33.0679 23.9418C33.5057 23.4112 33.8209 22.7903 33.991 22.1237C34.1611 21.4571 34.1819 20.7612 34.0518 20.0856C33.9218 19.41 33.6442 18.7715 33.2388 18.2157C32.8334 17.6599 32.3102 17.2004 31.7067 16.8702C31.1031 16.54 30.4341 16.3471 29.7474 16.3054C29.0607 16.2637 28.3733 16.3742 27.7342 16.6289C27.6598 16.6594 27.58 16.6748 27.4996 16.6744C27.4192 16.6739 27.3397 16.6575 27.2656 16.6261C27.1916 16.5947 27.1244 16.549 27.0681 16.4916C27.0118 16.4342 26.9675 16.3662 26.9376 16.2915C26.9077 16.2168 26.8929 16.137 26.894 16.0566C26.8951 15.9761 26.9121 15.8967 26.9441 15.8229C26.976 15.7491 27.0222 15.6824 27.0801 15.6265C27.138 15.5707 27.2063 15.5268 27.2812 15.4975C28.6674 14.9449 30.2116 14.9389 31.602 15.4809C32.9923 16.0228 34.1252 17.0722 34.7717 18.4171C35.4183 19.762 35.5303 21.3022 35.0852 22.7265C34.64 24.1508 33.6709 25.3531 32.3736 26.0905C34.4709 26.7591 36.272 28.1332 37.471 29.9793C37.5581 30.115 37.5879 30.2797 37.5539 30.4374C37.5198 30.595 37.4246 30.7327 37.2892 30.8203Z" fill="white"/> </g> <defs> <clipPath id="clip0_313_55"> <rect width="50" height="50" fill="white"/> </clipPath> </defs> </svg>