<svg width="100%" height="400" viewBox="0 0 1440 423" fill="none" xmlns="http://www.w3.org/2000/svg"><path d="M-28.4751 164.541C0.703997 141.788 30.7496 120.298 62.4084 101.091C101.966 77.0912 145.765 63.9496 190.19 51.9255C199.384 49.4371 232.583 35.6824 243.505 43.5115C254.615 51.4757 219.374 92.0573 216.174 96.1843C189.483 130.612 160.363 163.736 136.886 200.531C119.263 228.151 97.0237 267.212 101.299 301.592C105.281 333.617 135.43 349.063 164.802 352.905C258.721 365.192 354.998 315.238 437.839 278.686C475.285 262.163 509.509 246.104 548.293 232.885C573.38 224.334 624.718 203.61 653.212 215.917C667.872 222.249 657.971 258.263 657.176 267.055C654.329 298.549 647.769 333.557 653.111 365.152C660.092 406.432 725.47 355.974 739.859 348.482C807.248 313.399 875.388 279.123 946.191 251.355C1006.45 227.723 1092.04 156.483 1159 171.5C1182.37 176.741 1188.99 232.1 1200.4 251.687C1204.43 258.601 1207.47 286.702 1216.1 291.906C1223.37 296.291 1241.43 283.309 1246.42 280.621C1266.71 269.697 1286.29 258.524 1307.52 249.329C1471.06 178.5 1647.04 126.982 1822.36 95.3711" stroke="#D1FA94" stroke-width="82" stroke-linecap="round" class="svg-elem-1"></path>

<style>
.svg-elem-1 {
    -webkit-animation: svg-stroke 2.5s ease-out 0.8s both;
    animation: svg-stroke 2.5s ease-out 0.8s both;
}

@keyframes svg-stroke{
	0% {
    stroke-dashoffset: 2704.27001953125px;
    stroke-dasharray: 2704.27001953125px;
}
100% {
    stroke-dashoffset: 0;
    stroke-dasharray: 2704.27001953125px;
}
}
</style>
</svg>