<svg xmlns="http://www.w3.org/2000/svg" width="228" height="28" viewBox="0 0 228 28" fill="none"> <path d="M21.52 18.653H24.436V27.374H20.062V23.027H5.239V27.374H0.892V18.653H3.538C2.917 18.653 2.458 18.653 2.377 18.653C5.428 18.653 6.697 9.527 6.697 1.157C9.1 1.157 18.28 1.157 21.034 1.157V18.653H21.52ZM8.101 18.653H16.174V5.531H10.963C10.747 11.984 10.126 15.953 8.101 18.653ZM35.1105 0.697999C41.0775 0.697999 45.5325 4.91 45.5325 12.065C45.5325 19.544 40.8075 23.405 35.1105 23.405C29.4135 23.405 24.7155 19.517 24.7155 12.065C24.7155 4.775 29.4135 0.697999 35.1105 0.697999ZM35.1105 18.896C38.3775 18.896 40.8075 16.763 40.8075 12.065C40.8075 7.394 38.3505 5.234 35.1105 5.234C31.8975 5.234 29.4135 7.394 29.4135 12.065C29.4135 16.763 31.8705 18.896 35.1105 18.896ZM62.2622 14.198H67.2032C66.3662 20.3 62.0462 23.405 56.9162 23.405C51.2192 23.405 46.5212 19.517 46.5212 12.065C46.5212 4.775 51.2192 0.697999 56.9162 0.697999C62.0732 0.697999 66.0692 3.857 67.0952 9.284H62.0462C61.4792 6.557 59.4272 5.234 56.9162 5.234C53.7032 5.234 51.2192 7.394 51.2192 12.065C51.2192 16.763 53.6762 18.896 56.9162 18.896C59.6432 18.896 61.9112 17.384 62.2622 14.198ZM67.9558 1.157H88.0168V5.531H80.4028V23H75.5698V5.531H67.9558V1.157ZM101.936 23L100.235 18.491H92.1889L90.4879 23H85.8979L93.9169 1.157H98.9929L106.526 23H101.936ZM93.7009 14.468H98.7229L96.2119 7.826L93.7009 14.468ZM107.605 1.157H116.704C120.727 1.157 123.535 4.37 123.535 7.556C123.535 10.256 121.699 12.119 120.97 12.119C123.022 12.119 125.128 14.333 125.128 17.141C125.128 20.111 122.806 23 118.783 23H107.605V1.157ZM112.438 5.396V9.959H117.109C118.351 9.959 119.35 8.906 119.35 7.691C119.35 6.476 118.297 5.396 117.136 5.396H112.438ZM118.486 18.761C119.728 18.761 120.727 17.762 120.727 16.52C120.727 15.251 119.701 14.198 118.432 14.198H112.438V18.761H118.486ZM140.598 23L133.74 13.442L131.364 16.034V23H126.774V1.157H131.364V10.229L139.68 1.157H145.026L136.818 10.067L145.998 23H140.598ZM162.027 23L160.326 18.491H152.28L150.579 23H145.989L154.008 1.157H159.084L166.617 23H162.027ZM153.792 14.468H158.814L156.303 7.826L153.792 14.468Z" fill="#1B1B1B"/> <path d="M167.696 1.157H186.137V23H181.277V5.531H172.529V23H167.696V1.157ZM198.756 1.157C203.481 1.157 205.938 4.775 205.938 8.204C205.938 12.713 202.536 15.17 198.945 15.17H193.491V23H188.658V1.157H191.871H198.756ZM198.648 10.931C200.403 10.931 201.699 9.878 201.699 8.204C201.699 6.53 200.322 5.396 198.648 5.396H193.491V10.931H198.648ZM217.044 0.697999C223.011 0.697999 227.466 4.91 227.466 12.065C227.466 19.544 222.741 23.405 217.044 23.405C211.347 23.405 206.649 19.517 206.649 12.065C206.649 4.775 211.347 0.697999 217.044 0.697999ZM217.044 18.896C220.311 18.896 222.741 16.763 222.741 12.065C222.741 7.394 220.284 5.234 217.044 5.234C213.831 5.234 211.347 7.394 211.347 12.065C211.347 16.763 213.804 18.896 217.044 18.896Z" fill="#9087EF"/> </svg>